<svg width="612" height="236" viewBox="0 0 612 236" fill="none" xmlns="http://www.w3.org/2000/svg">
    <path fill-rule="evenodd" clip-rule="evenodd" d="M116.002 0.323826C128.423 1.96609 140.15 5.89826 151.091 12.0278L153.265 13.2306L152.502 15.5899C151.507 18.6431 147.158 32.6139 150.489 35.2508C153.866 37.9108 166.611 29.9077 169.271 28.1729L171.237 26.9007L172.949 28.4967C181.785 36.6386 189.418 46.1915 194.067 57.3404L194.946 59.4221L193.188 60.8331C190.644 62.8917 178.801 72.7915 180.281 76.8856C181.738 80.9335 196.889 80.9334 200.081 80.8641L202.463 80.8178L203.065 83.1077C204.337 87.9882 204.707 92.9844 203.99 97.9806L203.62 100.502L155.485 101.705L155.092 99.0909C151.993 78.7823 140.173 60.5324 120.674 52.7374C106.356 47.0011 90.697 48.3195 76.9575 55.0505C67.9829 59.4453 60.8819 66.4075 56.1401 75.1971C50.08 86.4616 48.3914 99.831 50.9589 112.321C53.7346 125.807 61.2288 137.534 72.3777 145.629L74.2975 147.017L55.5156 192.7L52.6243 191.243C15.0836 172.507 -3.76774 127.819 0.627045 87.3175L0.90461 84.7962L3.42583 84.6343C6.75661 84.4262 22.1152 83.2002 23.318 78.9674C24.5208 74.8039 12.2848 65.9912 9.62479 64.1639L7.63557 62.776L8.56079 60.5324C13.4876 48.5508 20.8893 38.1884 30.2803 29.3294L32.0382 27.664L34.0505 29.0287C36.7799 30.8792 49.1316 38.9979 52.6706 36.4305C56.2789 33.8399 52.0923 19.1983 51.1208 16.0294L50.4269 13.7395L52.4855 12.5367C63.5881 6.08331 75.5928 2.01235 88.3377 0.300696L90.8127 0L91.6222 2.31305C92.6631 5.32 97.9137 19.684 102.216 19.6378C106.518 19.5915 111.676 5.36627 112.74 2.31305L113.55 0L116.002 0.323826Z" fill="#2D2D2C"/>
    <path fill-rule="evenodd" clip-rule="evenodd" d="M67.3118 155.922L54.0118 188.953C18.2522 171.443 -1.20056 128.351 3.67997 88.0577C17.6508 88.4509 30.2106 88.1502 32.1536 82.5295C34.3741 75.5673 22.6932 68.4431 11.4287 62.1053C17.0031 49.2911 24.1042 39.4606 32.4311 31.9432C43.5337 41.4498 52.7397 47.0705 57.8746 44.3874C63.1484 40.8716 61.7374 30.3935 54.1044 15.59C63.5647 9.73798 75.0143 5.66702 88.8463 3.74719C92.5009 19.4296 96.78 30.1159 102.493 29.4451C108.276 29.422 112.393 19.1983 115.654 3.74719C128.122 5.71328 139.502 9.43728 149.656 15.0811C143.203 27.6872 140.265 37.9571 144.637 43.4159C150.651 46.6079 160.296 40.1545 170.936 31.1105C180.027 39.1599 186.596 48.5509 191.314 58.8902C177.899 67.1246 170.52 73.925 170.936 78.9212C171.954 85.0045 184.051 86.3923 200.127 84.2874C201.283 89.1911 201.677 93.7709 200.983 97.9807L165.663 98.5589C160.828 47.7876 109.34 23.6394 68.3527 48.2502C28.1751 73.2542 29.6323 130.386 67.3118 155.922Z" fill="#EC6408"/>
    <path d="M229.827 52.9688H218.655V99.6691H229.827V80.147H258.693V99.6691H269.865V52.9688H258.693V70.8717H229.827V52.9688ZM276.804 52.9688V99.6691H287.977V62.2441H316.843V99.6691H328.015V52.9688H276.804ZM346.126 90.3938V52.9688H334.954V99.6691H381.192V110.911H391.416V90.3707H386.165V52.9688H374.993V90.3938H346.126Z" fill="#EC6408"/>
    <path d="M89.5176 134.897V191.844H103.141V146.231H138.346V191.867H151.97V134.897H89.5176ZM174.291 175.028H199.642C204.314 175.051 208.107 174.38 211.045 172.993C213.983 171.628 216.111 169.454 217.498 166.493C218.863 163.532 219.534 159.646 219.534 154.835C219.557 150.07 218.886 146.208 217.545 143.27C216.18 140.332 214.052 138.204 211.091 136.863C208.154 135.521 204.291 134.851 199.526 134.874H160.667V191.821H174.291V175.028ZM174.291 146.231H197.028C198.809 146.231 200.266 146.416 201.423 146.786C202.579 147.156 203.481 147.711 204.129 148.451C204.777 149.168 205.239 150.07 205.494 151.134C205.771 152.221 205.887 153.447 205.887 154.835C205.91 156.894 205.656 158.559 205.124 159.878C204.615 161.196 203.689 162.144 202.394 162.769C201.099 163.394 199.318 163.694 197.028 163.694H174.291V146.231ZM239.935 171.003V155.83C239.912 153.794 240.097 152.129 240.444 150.787C240.791 149.469 241.369 148.405 242.202 147.642C243.011 146.878 244.145 146.346 245.556 146.023C246.967 145.699 248.748 145.56 250.852 145.56H268.408C270.444 145.537 272.132 145.676 273.543 145.976C274.954 146.254 276.065 146.786 276.921 147.526C277.776 148.266 278.378 149.307 278.771 150.626C279.164 151.944 279.349 153.656 279.326 155.714V170.888C279.349 172.808 279.187 174.38 278.887 175.653C278.563 176.902 278.031 177.873 277.267 178.59C276.481 179.284 275.394 179.793 274.006 180.071C272.618 180.348 270.837 180.487 268.663 180.487H250.598C247.869 180.51 245.694 180.232 244.145 179.677C242.595 179.122 241.485 178.151 240.86 176.74C240.236 175.421 239.912 173.478 239.935 171.003ZM292.95 172.391V154.511C292.95 150.533 292.534 147.225 291.724 144.588C290.891 141.952 289.642 139.893 287.954 138.366C286.265 136.84 284.114 135.776 281.547 135.151C278.956 134.527 275.903 134.226 272.364 134.226H247.337C243.474 134.203 240.189 134.527 237.506 135.197C234.823 135.868 232.649 136.979 231.007 138.505C229.364 140.055 228.162 142.137 227.421 144.75C226.658 147.387 226.311 150.626 226.311 154.511V172.391C226.288 175.838 226.681 178.775 227.444 181.25C228.208 183.725 229.434 185.738 231.099 187.287C232.764 188.837 234.939 189.994 237.599 190.757C240.282 191.497 243.52 191.844 247.314 191.844H272.341C276.296 191.867 279.627 191.497 282.287 190.803C284.947 190.086 287.052 188.976 288.625 187.449C290.174 185.923 291.285 183.91 291.955 181.435C292.649 178.96 292.973 175.953 292.95 172.391ZM302.734 134.897V191.844H316.358V146.231H318.162L337.684 191.867H357.044L376.566 146.231H378.371V191.867H391.995V134.897H366.644L347.769 180.533H346.96L328.085 134.897H302.734ZM399.72 134.897V146.231H423.521V191.867H437.145V146.231H461.201V134.897H399.72ZM468.001 191.844H526.197V181.111H481.625V168.066H524.786V158.143H481.625V145.676H526.197V134.92H468.001V191.844ZM552.543 134.897H534.085L560.338 162.561L530.87 191.867H550.901L571.094 169.384L591.286 191.867H611.318L581.849 162.561L608.102 134.897H589.644L571.094 155.668L552.543 134.897Z" fill="#2D2D2C"/>
    <path d="M179.472 211.713H173.666V228.991H179.472V220.41C179.472 217.334 181.16 215.691 184.098 215.691H186.966C189.95 215.691 191.06 216.94 191.06 219.971V228.991H196.866V218.814C196.866 214.327 194.275 211.713 189.163 211.713H184.468C180.466 211.713 179.564 213.887 179.472 214.165V211.713ZM210.605 211.713H204.799V236H210.605V226.609C211.23 227.627 213.08 228.991 215.648 228.991H220.852C226.033 228.991 228.416 225.984 228.416 222.191V218.421C228.416 214.003 225.709 211.69 220.852 211.69H215.601C212.941 211.69 211.577 212.846 210.605 213.748V211.713ZM222.61 221.752C222.61 223.949 221.315 225.013 218.539 225.013H214.375C211.831 225.013 210.605 223.856 210.605 221.752V218.953C210.605 216.894 211.831 215.691 214.375 215.691H218.539C221.315 215.691 222.61 216.802 222.61 218.953V221.752ZM258.069 217.727C258.069 213.286 255.802 211.644 250.228 211.644H242.363C237.668 211.644 235.216 214.373 235.216 218.444V222.607C235.216 226.031 237.621 229.015 242.178 229.015H250.436C256.658 229.015 258.069 226.887 258.069 222.746H252.263C252.263 224.435 251.87 225.013 249.719 225.013H244.121C242.363 225.013 241.045 223.903 241.045 222.006V219.022C241.045 216.848 242.271 215.622 244.306 215.622H249.811C251.8 215.622 252.286 216.293 252.286 217.727H258.069ZM270.999 211.713H265.193V236H270.999V226.609C271.623 227.627 273.474 228.991 276.041 228.991H281.245C286.427 228.991 288.809 225.984 288.809 222.191V218.421C288.809 214.003 286.103 211.69 281.245 211.69H275.995C273.335 211.69 271.97 212.846 270.999 213.748V211.713ZM283.003 221.752C283.003 223.949 281.708 225.013 278.932 225.013H274.769C272.225 225.013 270.999 223.856 270.999 221.752V218.953C270.999 216.894 272.225 215.691 274.769 215.691H278.932C281.708 215.691 283.003 216.802 283.003 218.953V221.752ZM297.252 208.382V211.713H295.147V215.715H297.252V222.584C297.252 226.563 299.773 229.015 304.26 229.015H307.938C315.363 229.015 316.334 225.591 316.334 221.937H310.529C310.529 223.695 309.927 225.013 308.262 225.013H305.856C304.168 225.013 303.081 224.111 303.081 221.937V215.715H313.929V211.713H303.081V208.382H297.252ZM324.453 228.991H330.259V223.186H324.453V228.991ZM360.884 217.727C360.884 213.286 358.617 211.644 353.042 211.644H345.178C340.483 211.644 338.031 214.373 338.031 218.444V222.607C338.031 226.031 340.436 229.015 344.993 229.015H353.251C359.473 229.015 360.884 226.887 360.884 222.746H355.078C355.078 224.435 354.685 225.013 352.534 225.013H346.936C345.178 225.013 343.86 223.903 343.86 222.006V219.022C343.86 216.848 345.086 215.622 347.121 215.622H352.626C354.615 215.622 355.101 216.293 355.101 217.727H360.884ZM375.687 211.644C370.575 211.644 368.1 214.766 368.1 218.583V222.191C368.1 226.17 370.83 229.015 375.687 229.015H383.806C388.733 229.015 391.37 226.216 391.37 222.26V218.583C391.37 214.743 388.848 211.644 383.783 211.644H375.687ZM385.564 219.022V221.798C385.564 224.111 384.384 225.013 381.817 225.013H377.861C375.155 225.013 373.906 223.995 373.906 221.821V218.976C373.906 216.732 375.155 215.622 377.861 215.622H381.817C384.361 215.622 385.564 216.987 385.564 219.022ZM405.225 211.713H399.419V228.991H405.225V219.6C405.225 217.264 406.312 215.691 409.111 215.691H410.822C414.176 215.691 415.032 217.311 415.032 219.647V228.991H420.838V219.716C420.838 217.264 422.318 215.691 425.209 215.691H426.62C430.298 215.691 430.645 217.172 430.645 219.462V228.991H436.451V218.305C436.451 214.396 434.253 211.69 428.656 211.69H426.597C422.249 211.69 421.138 212.661 420.098 214.211C419.542 213.17 417.993 211.69 414.176 211.69H410.776C407.838 211.69 406.566 212.731 405.248 214.396V211.713H405.225Z" fill="#2D2D2C"/>
</svg>
